<svg xmlns="http://www.w3.org/2000/svg" xmlns:xlink="http://www.w3.org/1999/xlink" width="500" zoomAndPan="magnify" viewBox="0 0 375 187.499995" height="250" preserveAspectRatio="xMidYMid meet" version="1.0"><defs><g/></defs><path fill="#a01a1a" d="M 51.007812 70.964844 C 50.488281 48.714844 74.765625 33.089844 96.074219 45.300781 C 103.09375 49.324219 109.054688 55.28125 115.460938 61.789062 C 115.753906 62.085938 115.886719 62.054688 116.160156 61.78125 C 126.179688 51.675781 140.691406 36.269531 161.019531 42.265625 C 169.574219 44.785156 175.519531 50.335938 178.5625 58.699219 C 188.753906 86.6875 159.519531 109.863281 134.449219 94.5 C 128.125 90.625 122.664062 85.28125 116.210938 78.707031 C 115.863281 78.355469 115.710938 78.40625 115.394531 78.722656 C 108.0625 86.117188 100.167969 94.15625 90.417969 97.519531 C 70.574219 104.367188 51.554688 92.546875 51.007812 70.964844 Z M 63.421875 70.53125 C 64.054688 83.382812 73.941406 89.375 84.472656 87.097656 C 93.574219 85.128906 101.210938 77.121094 107.714844 70.4375 C 107.933594 70.210938 107.8125 70.121094 107.660156 69.980469 C 102.011719 64.707031 96.496094 58.265625 89.542969 54.953125 C 76.070312 48.527344 63.378906 57.949219 63.421875 70.53125 Z M 168.191406 69.988281 C 167.792969 57.570312 157.992188 50.800781 146.703125 53.449219 C 137.820312 55.535156 130.226562 63.5 123.921875 69.980469 C 123.703125 70.207031 123.785156 70.3125 123.964844 70.476562 C 131.851562 77.835938 141.15625 89.457031 153.730469 87.339844 C 162.105469 85.929688 168.210938 78.632812 168.191406 69.988281 Z M 168.191406 69.988281 " fill-opacity="1" fill-rule="nonzero"/><g fill="#a01a1a" fill-opacity="1"><g transform="translate(18.529353, 98.123639)"><g><path d="M 6.703125 -56.546875 L 19.796875 -56.546875 L 19.796875 0 L 6.703125 0 Z M 6.703125 -56.546875 "/></g></g></g><g fill="#a01a1a" fill-opacity="1"><g transform="translate(189.96933, 97.994034)"><g><path d="M 44.625 -12.3125 L 17.96875 -12.3125 L 12.875 0 L -0.734375 0 L 24.859375 -57.421875 L 37.984375 -57.421875 L 63.65625 0 L 49.71875 0 Z M 40.4375 -22.390625 L 31.34375 -44.375 L 22.234375 -22.390625 Z M 40.4375 -22.390625 "/></g></g></g><g fill="#a01a1a" fill-opacity="1"><g transform="translate(252.799341, 97.994034)"><g><path d="M 25.671875 0.984375 C 21.140625 0.984375 16.753906 0.367188 12.515625 -0.859375 C 8.273438 -2.085938 4.867188 -3.6875 2.296875 -5.65625 L 6.8125 -15.671875 C 9.269531 -13.867188 12.191406 -12.421875 15.578125 -11.328125 C 18.972656 -10.234375 22.367188 -9.6875 25.765625 -9.6875 C 29.535156 -9.6875 32.320312 -10.242188 34.125 -11.359375 C 35.925781 -12.484375 36.828125 -13.972656 36.828125 -15.828125 C 36.828125 -17.203125 36.296875 -18.335938 35.234375 -19.234375 C 34.171875 -20.140625 32.800781 -20.863281 31.125 -21.40625 C 29.457031 -21.957031 27.203125 -22.5625 24.359375 -23.21875 C 19.984375 -24.257812 16.398438 -25.296875 13.609375 -26.328125 C 10.828125 -27.367188 8.4375 -29.035156 6.4375 -31.328125 C 4.445312 -33.628906 3.453125 -36.695312 3.453125 -40.53125 C 3.453125 -43.863281 4.351562 -46.882812 6.15625 -49.59375 C 7.957031 -52.300781 10.675781 -54.445312 14.3125 -56.03125 C 17.945312 -57.613281 22.390625 -58.40625 27.640625 -58.40625 C 31.304688 -58.40625 34.890625 -57.96875 38.390625 -57.09375 C 41.890625 -56.21875 44.953125 -54.960938 47.578125 -53.328125 L 43.484375 -43.234375 C 38.171875 -46.242188 32.863281 -47.75 27.5625 -47.75 C 23.84375 -47.75 21.09375 -47.144531 19.3125 -45.9375 C 17.539062 -44.738281 16.65625 -43.15625 16.65625 -41.1875 C 16.65625 -39.21875 17.679688 -37.753906 19.734375 -36.796875 C 21.785156 -35.835938 24.914062 -34.894531 29.125 -33.96875 C 33.5 -32.925781 37.078125 -31.882812 39.859375 -30.84375 C 42.648438 -29.800781 45.046875 -28.160156 47.046875 -25.921875 C 49.046875 -23.679688 50.046875 -20.644531 50.046875 -16.8125 C 50.046875 -13.53125 49.128906 -10.535156 47.296875 -7.828125 C 45.460938 -5.128906 42.710938 -2.984375 39.046875 -1.390625 C 35.378906 0.191406 30.921875 0.984375 25.671875 0.984375 Z M 25.671875 0.984375 "/></g></g></g><g fill="#a01a1a" fill-opacity="1"><g transform="translate(23.304505, 130.121732)"><g><path d="M 1.828125 -15.359375 L 5.375 -15.359375 L 5.375 0 L 1.828125 0 Z M 1.828125 -15.359375 "/></g></g></g><g fill="#a01a1a" fill-opacity="1"><g transform="translate(30.148966, 130.121732)"><g><path d="M 15.90625 -15.359375 L 15.90625 0 L 12.984375 0 L 5.328125 -9.328125 L 5.328125 0 L 1.828125 0 L 1.828125 -15.359375 L 4.765625 -15.359375 L 12.390625 -6.03125 L 12.390625 -15.359375 Z M 15.90625 -15.359375 "/></g></g></g><g fill="#a01a1a" fill-opacity="1"><g transform="translate(47.52347, 130.121732)"><g><path d="M 6.859375 0.265625 C 5.648438 0.265625 4.476562 0.101562 3.34375 -0.21875 C 2.207031 -0.550781 1.296875 -0.984375 0.609375 -1.515625 L 1.828125 -4.1875 C 2.484375 -3.707031 3.265625 -3.320312 4.171875 -3.03125 C 5.078125 -2.738281 5.984375 -2.59375 6.890625 -2.59375 C 7.898438 -2.59375 8.644531 -2.738281 9.125 -3.03125 C 9.601562 -3.332031 9.84375 -3.734375 9.84375 -4.234375 C 9.84375 -4.597656 9.703125 -4.898438 9.421875 -5.140625 C 9.140625 -5.378906 8.773438 -5.570312 8.328125 -5.71875 C 7.878906 -5.863281 7.273438 -6.023438 6.515625 -6.203125 C 5.347656 -6.484375 4.390625 -6.757812 3.640625 -7.03125 C 2.890625 -7.3125 2.25 -7.757812 1.71875 -8.375 C 1.1875 -8.988281 0.921875 -9.8125 0.921875 -10.84375 C 0.921875 -11.726562 1.160156 -12.53125 1.640625 -13.25 C 2.128906 -13.976562 2.859375 -14.554688 3.828125 -14.984375 C 4.796875 -15.410156 5.984375 -15.625 7.390625 -15.625 C 8.367188 -15.625 9.328125 -15.503906 10.265625 -15.265625 C 11.203125 -15.035156 12.019531 -14.703125 12.71875 -14.265625 L 11.625 -11.5625 C 10.207031 -12.363281 8.789062 -12.765625 7.375 -12.765625 C 6.375 -12.765625 5.632812 -12.601562 5.15625 -12.28125 C 4.6875 -11.957031 4.453125 -11.535156 4.453125 -11.015625 C 4.453125 -10.484375 4.722656 -10.085938 5.265625 -9.828125 C 5.816406 -9.578125 6.65625 -9.328125 7.78125 -9.078125 C 8.957031 -8.804688 9.914062 -8.53125 10.65625 -8.25 C 11.40625 -7.96875 12.046875 -7.523438 12.578125 -6.921875 C 13.109375 -6.328125 13.375 -5.519531 13.375 -4.5 C 13.375 -3.625 13.128906 -2.820312 12.640625 -2.09375 C 12.148438 -1.375 11.414062 -0.800781 10.4375 -0.375 C 9.457031 0.0507812 8.265625 0.265625 6.859375 0.265625 Z M 6.859375 0.265625 "/></g></g></g><g fill="#a01a1a" fill-opacity="1"><g transform="translate(60.949192, 130.121732)"><g><path d="M 5 -12.453125 L 0.09375 -12.453125 L 0.09375 -15.359375 L 13.46875 -15.359375 L 13.46875 -12.453125 L 8.5625 -12.453125 L 8.5625 0 L 5 0 Z M 5 -12.453125 "/></g></g></g><g fill="#a01a1a" fill-opacity="1"><g transform="translate(73.38769, 130.121732)"><g><path d="M 11.9375 -3.296875 L 4.796875 -3.296875 L 3.4375 0 L -0.203125 0 L 6.640625 -15.359375 L 10.15625 -15.359375 L 17.03125 0 L 13.296875 0 Z M 10.8125 -5.984375 L 8.375 -11.875 L 5.9375 -5.984375 Z M 10.8125 -5.984375 "/></g></g></g><g fill="#a01a1a" fill-opacity="1"><g transform="translate(89.840815, 130.121732)"><g><path d="M 15.90625 -15.359375 L 15.90625 0 L 12.984375 0 L 5.328125 -9.328125 L 5.328125 0 L 1.828125 0 L 1.828125 -15.359375 L 4.765625 -15.359375 L 12.390625 -6.03125 L 12.390625 -15.359375 Z M 15.90625 -15.359375 "/></g></g></g><g fill="#a01a1a" fill-opacity="1"><g transform="translate(107.215319, 130.121732)"><g><path d="M 5 -12.453125 L 0.09375 -12.453125 L 0.09375 -15.359375 L 13.46875 -15.359375 L 13.46875 -12.453125 L 8.5625 -12.453125 L 8.5625 0 L 5 0 Z M 5 -12.453125 "/></g></g></g><g fill="#a01a1a" fill-opacity="1"><g transform="translate(120.421682, 130.121732)"><g><path d="M 1.828125 -15.359375 L 5.375 -15.359375 L 5.375 -2.890625 L 13.078125 -2.890625 L 13.078125 0 L 1.828125 0 Z M 1.828125 -15.359375 "/></g></g></g><g fill="#a01a1a" fill-opacity="1"><g transform="translate(131.741311, 130.121732)"><g><path d="M 9.1875 -5.4375 L 9.1875 0 L 5.640625 0 L 5.640625 -5.484375 L -0.3125 -15.359375 L 3.46875 -15.359375 L 7.5625 -8.53125 L 11.671875 -15.359375 L 15.15625 -15.359375 Z M 9.1875 -5.4375 "/></g></g></g><g fill="#a01a1a" fill-opacity="1"><g transform="translate(146.220057, 130.121732)"><g/></g></g><g fill="#a01a1a" fill-opacity="1"><g transform="translate(152.077328, 130.121732)"><g><path d="M 1.828125 -15.359375 L 8.796875 -15.359375 C 10.460938 -15.359375 11.9375 -15.039062 13.21875 -14.40625 C 14.5 -13.769531 15.492188 -12.875 16.203125 -11.71875 C 16.910156 -10.5625 17.265625 -9.210938 17.265625 -7.671875 C 17.265625 -6.140625 16.910156 -4.796875 16.203125 -3.640625 C 15.492188 -2.484375 14.5 -1.585938 13.21875 -0.953125 C 11.9375 -0.316406 10.460938 0 8.796875 0 L 1.828125 0 Z M 8.625 -2.921875 C 10.15625 -2.921875 11.378906 -3.347656 12.296875 -4.203125 C 13.210938 -5.054688 13.671875 -6.210938 13.671875 -7.671875 C 13.671875 -9.140625 13.210938 -10.300781 12.296875 -11.15625 C 11.378906 -12.007812 10.15625 -12.4375 8.625 -12.4375 L 5.375 -12.4375 L 5.375 -2.921875 Z M 8.625 -2.921875 "/></g></g></g><g fill="#a01a1a" fill-opacity="1"><g transform="translate(169.84671, 130.121732)"><g><path d="M 1.828125 -15.359375 L 5.375 -15.359375 L 5.375 0 L 1.828125 0 Z M 1.828125 -15.359375 "/></g></g></g><g fill="#a01a1a" fill-opacity="1"><g transform="translate(176.691171, 130.121732)"><g><path d="M 6.859375 0.265625 C 5.648438 0.265625 4.476562 0.101562 3.34375 -0.21875 C 2.207031 -0.550781 1.296875 -0.984375 0.609375 -1.515625 L 1.828125 -4.1875 C 2.484375 -3.707031 3.265625 -3.320312 4.171875 -3.03125 C 5.078125 -2.738281 5.984375 -2.59375 6.890625 -2.59375 C 7.898438 -2.59375 8.644531 -2.738281 9.125 -3.03125 C 9.601562 -3.332031 9.84375 -3.734375 9.84375 -4.234375 C 9.84375 -4.597656 9.703125 -4.898438 9.421875 -5.140625 C 9.140625 -5.378906 8.773438 -5.570312 8.328125 -5.71875 C 7.878906 -5.863281 7.273438 -6.023438 6.515625 -6.203125 C 5.347656 -6.484375 4.390625 -6.757812 3.640625 -7.03125 C 2.890625 -7.3125 2.25 -7.757812 1.71875 -8.375 C 1.1875 -8.988281 0.921875 -9.8125 0.921875 -10.84375 C 0.921875 -11.726562 1.160156 -12.53125 1.640625 -13.25 C 2.128906 -13.976562 2.859375 -14.554688 3.828125 -14.984375 C 4.796875 -15.410156 5.984375 -15.625 7.390625 -15.625 C 8.367188 -15.625 9.328125 -15.503906 10.265625 -15.265625 C 11.203125 -15.035156 12.019531 -14.703125 12.71875 -14.265625 L 11.625 -11.5625 C 10.207031 -12.363281 8.789062 -12.765625 7.375 -12.765625 C 6.375 -12.765625 5.632812 -12.601562 5.15625 -12.28125 C 4.6875 -11.957031 4.453125 -11.535156 4.453125 -11.015625 C 4.453125 -10.484375 4.722656 -10.085938 5.265625 -9.828125 C 5.816406 -9.578125 6.65625 -9.328125 7.78125 -9.078125 C 8.957031 -8.804688 9.914062 -8.53125 10.65625 -8.25 C 11.40625 -7.96875 12.046875 -7.523438 12.578125 -6.921875 C 13.109375 -6.328125 13.375 -5.519531 13.375 -4.5 C 13.375 -3.625 13.128906 -2.820312 12.640625 -2.09375 C 12.148438 -1.375 11.414062 -0.800781 10.4375 -0.375 C 9.457031 0.0507812 8.265625 0.265625 6.859375 0.265625 Z M 6.859375 0.265625 "/></g></g></g><g fill="#a01a1a" fill-opacity="1"><g transform="translate(190.116893, 130.121732)"><g><path d="M 5 -12.453125 L 0.09375 -12.453125 L 0.09375 -15.359375 L 13.46875 -15.359375 L 13.46875 -12.453125 L 8.5625 -12.453125 L 8.5625 0 L 5 0 Z M 5 -12.453125 "/></g></g></g><g fill="#a01a1a" fill-opacity="1"><g transform="translate(203.323256, 130.121732)"><g><path d="M 11.609375 0 L 8.640625 -4.28125 L 5.375 -4.28125 L 5.375 0 L 1.828125 0 L 1.828125 -15.359375 L 8.46875 -15.359375 C 9.832031 -15.359375 11.015625 -15.128906 12.015625 -14.671875 C 13.015625 -14.222656 13.785156 -13.582031 14.328125 -12.75 C 14.867188 -11.914062 15.140625 -10.925781 15.140625 -9.78125 C 15.140625 -8.644531 14.863281 -7.660156 14.3125 -6.828125 C 13.757812 -6.003906 12.984375 -5.375 11.984375 -4.9375 L 15.421875 0 Z M 11.546875 -9.78125 C 11.546875 -10.644531 11.265625 -11.304688 10.703125 -11.765625 C 10.148438 -12.222656 9.335938 -12.453125 8.265625 -12.453125 L 5.375 -12.453125 L 5.375 -7.109375 L 8.265625 -7.109375 C 9.335938 -7.109375 10.148438 -7.34375 10.703125 -7.8125 C 11.265625 -8.28125 11.546875 -8.9375 11.546875 -9.78125 Z M 11.546875 -9.78125 "/></g></g></g><g fill="#a01a1a" fill-opacity="1"><g transform="translate(219.096299, 130.121732)"><g><path d="M 1.828125 -15.359375 L 5.375 -15.359375 L 5.375 0 L 1.828125 0 Z M 1.828125 -15.359375 "/></g></g></g><g fill="#a01a1a" fill-opacity="1"><g transform="translate(225.94077, 130.121732)"><g><path d="M 13.09375 -7.984375 C 13.96875 -7.703125 14.65625 -7.234375 15.15625 -6.578125 C 15.65625 -5.929688 15.90625 -5.132812 15.90625 -4.1875 C 15.90625 -2.84375 15.378906 -1.804688 14.328125 -1.078125 C 13.285156 -0.359375 11.765625 0 9.765625 0 L 1.828125 0 L 1.828125 -15.359375 L 9.328125 -15.359375 C 11.191406 -15.359375 12.625 -15 13.625 -14.28125 C 14.632812 -13.5625 15.140625 -12.585938 15.140625 -11.359375 C 15.140625 -10.617188 14.957031 -9.953125 14.59375 -9.359375 C 14.238281 -8.773438 13.738281 -8.316406 13.09375 -7.984375 Z M 5.359375 -12.6875 L 5.359375 -9.0625 L 8.890625 -9.0625 C 9.765625 -9.0625 10.425781 -9.210938 10.875 -9.515625 C 11.332031 -9.828125 11.5625 -10.28125 11.5625 -10.875 C 11.5625 -11.476562 11.332031 -11.929688 10.875 -12.234375 C 10.425781 -12.535156 9.765625 -12.6875 8.890625 -12.6875 Z M 9.5 -2.671875 C 10.4375 -2.671875 11.140625 -2.820312 11.609375 -3.125 C 12.085938 -3.4375 12.328125 -3.914062 12.328125 -4.5625 C 12.328125 -5.832031 11.382812 -6.46875 9.5 -6.46875 L 5.359375 -6.46875 L 5.359375 -2.671875 Z M 9.5 -2.671875 "/></g></g></g><g fill="#a01a1a" fill-opacity="1"><g transform="translate(242.371959, 130.121732)"><g><path d="M 8.640625 0.265625 C 6.453125 0.265625 4.742188 -0.335938 3.515625 -1.546875 C 2.296875 -2.765625 1.6875 -4.5 1.6875 -6.75 L 1.6875 -15.359375 L 5.25 -15.359375 L 5.25 -6.890625 C 5.25 -4.140625 6.390625 -2.765625 8.671875 -2.765625 C 9.773438 -2.765625 10.617188 -3.097656 11.203125 -3.765625 C 11.796875 -4.429688 12.09375 -5.472656 12.09375 -6.890625 L 12.09375 -15.359375 L 15.59375 -15.359375 L 15.59375 -6.75 C 15.59375 -4.5 14.984375 -2.765625 13.765625 -1.546875 C 12.546875 -0.335938 10.835938 0.265625 8.640625 0.265625 Z M 8.640625 0.265625 "/></g></g></g><g fill="#a01a1a" fill-opacity="1"><g transform="translate(259.044455, 130.121732)"><g><path d="M 5 -12.453125 L 0.09375 -12.453125 L 0.09375 -15.359375 L 13.46875 -15.359375 L 13.46875 -12.453125 L 8.5625 -12.453125 L 8.5625 0 L 5 0 Z M 5 -12.453125 "/></g></g></g><g fill="#a01a1a" fill-opacity="1"><g transform="translate(272.250807, 130.121732)"><g><path d="M 13.71875 -2.859375 L 13.71875 0 L 1.828125 0 L 1.828125 -15.359375 L 13.421875 -15.359375 L 13.421875 -12.5 L 5.359375 -12.5 L 5.359375 -9.171875 L 12.484375 -9.171875 L 12.484375 -6.40625 L 5.359375 -6.40625 L 5.359375 -2.859375 Z M 13.71875 -2.859375 "/></g></g></g><g fill="#a01a1a" fill-opacity="1"><g transform="translate(286.619844, 130.121732)"><g><path d="M 1.828125 -15.359375 L 8.796875 -15.359375 C 10.460938 -15.359375 11.9375 -15.039062 13.21875 -14.40625 C 14.5 -13.769531 15.492188 -12.875 16.203125 -11.71875 C 16.910156 -10.5625 17.265625 -9.210938 17.265625 -7.671875 C 17.265625 -6.140625 16.910156 -4.796875 16.203125 -3.640625 C 15.492188 -2.484375 14.5 -1.585938 13.21875 -0.953125 C 11.9375 -0.316406 10.460938 0 8.796875 0 L 1.828125 0 Z M 8.625 -2.921875 C 10.15625 -2.921875 11.378906 -3.347656 12.296875 -4.203125 C 13.210938 -5.054688 13.671875 -6.210938 13.671875 -7.671875 C 13.671875 -9.140625 13.210938 -10.300781 12.296875 -11.15625 C 11.378906 -12.007812 10.15625 -12.4375 8.625 -12.4375 L 5.375 -12.4375 L 5.375 -2.921875 Z M 8.625 -2.921875 "/></g></g></g><g fill="#a01a1a" fill-opacity="1"><g transform="translate(23.304505, 160.789948)"><g><path d="M 1.828125 -15.359375 L 8.796875 -15.359375 C 10.460938 -15.359375 11.9375 -15.039062 13.21875 -14.40625 C 14.5 -13.769531 15.492188 -12.875 16.203125 -11.71875 C 16.910156 -10.5625 17.265625 -9.210938 17.265625 -7.671875 C 17.265625 -6.140625 16.910156 -4.796875 16.203125 -3.640625 C 15.492188 -2.484375 14.5 -1.585938 13.21875 -0.953125 C 11.9375 -0.316406 10.460938 0 8.796875 0 L 1.828125 0 Z M 8.625 -2.921875 C 10.15625 -2.921875 11.378906 -3.347656 12.296875 -4.203125 C 13.210938 -5.054688 13.671875 -6.210938 13.671875 -7.671875 C 13.671875 -9.140625 13.210938 -10.300781 12.296875 -11.15625 C 11.378906 -12.007812 10.15625 -12.4375 8.625 -12.4375 L 5.375 -12.4375 L 5.375 -2.921875 Z M 8.625 -2.921875 "/></g></g></g><g fill="#a01a1a" fill-opacity="1"><g transform="translate(41.073888, 160.789948)"><g><path d="M 1.828125 -15.359375 L 5.375 -15.359375 L 5.375 0 L 1.828125 0 Z M 1.828125 -15.359375 "/></g></g></g><g fill="#a01a1a" fill-opacity="1"><g transform="translate(47.918348, 160.789948)"><g><path d="M 12.203125 -7.921875 L 15.4375 -7.921875 L 15.4375 -1.6875 C 14.601562 -1.0625 13.640625 -0.578125 12.546875 -0.234375 C 11.453125 0.0976562 10.347656 0.265625 9.234375 0.265625 C 7.640625 0.265625 6.207031 -0.0703125 4.9375 -0.75 C 3.664062 -1.4375 2.664062 -2.378906 1.9375 -3.578125 C 1.21875 -4.785156 0.859375 -6.148438 0.859375 -7.671875 C 0.859375 -9.191406 1.21875 -10.554688 1.9375 -11.765625 C 2.664062 -12.972656 3.671875 -13.914062 4.953125 -14.59375 C 6.242188 -15.28125 7.691406 -15.625 9.296875 -15.625 C 10.640625 -15.625 11.859375 -15.394531 12.953125 -14.9375 C 14.054688 -14.488281 14.984375 -13.832031 15.734375 -12.96875 L 13.453125 -10.859375 C 12.347656 -12.015625 11.023438 -12.59375 9.484375 -12.59375 C 8.492188 -12.59375 7.617188 -12.382812 6.859375 -11.96875 C 6.097656 -11.5625 5.503906 -10.984375 5.078125 -10.234375 C 4.660156 -9.492188 4.453125 -8.640625 4.453125 -7.671875 C 4.453125 -6.722656 4.660156 -5.875 5.078125 -5.125 C 5.503906 -4.382812 6.09375 -3.804688 6.84375 -3.390625 C 7.601562 -2.972656 8.46875 -2.765625 9.4375 -2.765625 C 10.457031 -2.765625 11.378906 -2.984375 12.203125 -3.421875 Z M 12.203125 -7.921875 "/></g></g></g><g fill="#a01a1a" fill-opacity="1"><g transform="translate(64.481159, 160.789948)"><g><path d="M 1.828125 -15.359375 L 5.375 -15.359375 L 5.375 0 L 1.828125 0 Z M 1.828125 -15.359375 "/></g></g></g><g fill="#a01a1a" fill-opacity="1"><g transform="translate(71.325619, 160.789948)"><g><path d="M 5 -12.453125 L 0.09375 -12.453125 L 0.09375 -15.359375 L 13.46875 -15.359375 L 13.46875 -12.453125 L 8.5625 -12.453125 L 8.5625 0 L 5 0 Z M 5 -12.453125 "/></g></g></g><g fill="#a01a1a" fill-opacity="1"><g transform="translate(83.764117, 160.789948)"><g><path d="M 11.9375 -3.296875 L 4.796875 -3.296875 L 3.4375 0 L -0.203125 0 L 6.640625 -15.359375 L 10.15625 -15.359375 L 17.03125 0 L 13.296875 0 Z M 10.8125 -5.984375 L 8.375 -11.875 L 5.9375 -5.984375 Z M 10.8125 -5.984375 "/></g></g></g><g fill="#a01a1a" fill-opacity="1"><g transform="translate(100.217243, 160.789948)"><g><path d="M 1.828125 -15.359375 L 5.375 -15.359375 L 5.375 -2.890625 L 13.078125 -2.890625 L 13.078125 0 L 1.828125 0 Z M 1.828125 -15.359375 "/></g></g></g><g fill="#a01a1a" fill-opacity="1"><g transform="translate(113.116476, 160.789948)"><g/></g></g><g fill="#a01a1a" fill-opacity="1"><g transform="translate(118.973747, 160.789948)"><g><path d="M 11.9375 -3.296875 L 4.796875 -3.296875 L 3.4375 0 L -0.203125 0 L 6.640625 -15.359375 L 10.15625 -15.359375 L 17.03125 0 L 13.296875 0 Z M 10.8125 -5.984375 L 8.375 -11.875 L 5.9375 -5.984375 Z M 10.8125 -5.984375 "/></g></g></g><g fill="#a01a1a" fill-opacity="1"><g transform="translate(135.207479, 160.789948)"><g><path d="M 9.171875 0.265625 C 7.609375 0.265625 6.191406 -0.0703125 4.921875 -0.75 C 3.660156 -1.4375 2.664062 -2.378906 1.9375 -3.578125 C 1.21875 -4.785156 0.859375 -6.148438 0.859375 -7.671875 C 0.859375 -9.191406 1.21875 -10.554688 1.9375 -11.765625 C 2.664062 -12.972656 3.660156 -13.914062 4.921875 -14.59375 C 6.191406 -15.28125 7.613281 -15.625 9.1875 -15.625 C 10.519531 -15.625 11.722656 -15.390625 12.796875 -14.921875 C 13.867188 -14.453125 14.773438 -13.78125 15.515625 -12.90625 L 13.234375 -10.796875 C 12.191406 -11.992188 10.90625 -12.59375 9.375 -12.59375 C 8.414062 -12.59375 7.5625 -12.382812 6.8125 -11.96875 C 6.070312 -11.550781 5.492188 -10.96875 5.078125 -10.21875 C 4.660156 -9.476562 4.453125 -8.628906 4.453125 -7.671875 C 4.453125 -6.722656 4.660156 -5.875 5.078125 -5.125 C 5.492188 -4.382812 6.070312 -3.804688 6.8125 -3.390625 C 7.5625 -2.972656 8.414062 -2.765625 9.375 -2.765625 C 10.90625 -2.765625 12.191406 -3.367188 13.234375 -4.578125 L 15.515625 -2.484375 C 14.773438 -1.585938 13.863281 -0.90625 12.78125 -0.4375 C 11.707031 0.03125 10.503906 0.265625 9.171875 0.265625 Z M 9.171875 0.265625 "/></g></g></g><g fill="#a01a1a" fill-opacity="1"><g transform="translate(150.783089, 160.789948)"><g><path d="M 5 -12.453125 L 0.09375 -12.453125 L 0.09375 -15.359375 L 13.46875 -15.359375 L 13.46875 -12.453125 L 8.5625 -12.453125 L 8.5625 0 L 5 0 Z M 5 -12.453125 "/></g></g></g><g fill="#a01a1a" fill-opacity="1"><g transform="translate(163.989452, 160.789948)"><g><path d="M 1.828125 -15.359375 L 5.375 -15.359375 L 5.375 0 L 1.828125 0 Z M 1.828125 -15.359375 "/></g></g></g><g fill="#a01a1a" fill-opacity="1"><g transform="translate(170.746153, 160.789948)"><g><path d="M 16.578125 -15.359375 L 9.9375 0 L 6.421875 0 L -0.203125 -15.359375 L 3.640625 -15.359375 L 8.3125 -4.390625 L 13.046875 -15.359375 Z M 16.578125 -15.359375 "/></g></g></g><g fill="#a01a1a" fill-opacity="1"><g transform="translate(185.92685, 160.789948)"><g><path d="M 11.9375 -3.296875 L 4.796875 -3.296875 L 3.4375 0 L -0.203125 0 L 6.640625 -15.359375 L 10.15625 -15.359375 L 17.03125 0 L 13.296875 0 Z M 10.8125 -5.984375 L 8.375 -11.875 L 5.9375 -5.984375 Z M 10.8125 -5.984375 "/></g></g></g><g fill="#a01a1a" fill-opacity="1"><g transform="translate(201.612111, 160.789948)"><g><path d="M 5 -12.453125 L 0.09375 -12.453125 L 0.09375 -15.359375 L 13.46875 -15.359375 L 13.46875 -12.453125 L 8.5625 -12.453125 L 8.5625 0 L 5 0 Z M 5 -12.453125 "/></g></g></g><g fill="#a01a1a" fill-opacity="1"><g transform="translate(214.818462, 160.789948)"><g><path d="M 1.828125 -15.359375 L 5.375 -15.359375 L 5.375 0 L 1.828125 0 Z M 1.828125 -15.359375 "/></g></g></g><g fill="#a01a1a" fill-opacity="1"><g transform="translate(221.662934, 160.789948)"><g><path d="M 9.25 0.265625 C 7.65625 0.265625 6.21875 -0.078125 4.9375 -0.765625 C 3.664062 -1.453125 2.664062 -2.398438 1.9375 -3.609375 C 1.21875 -4.816406 0.859375 -6.171875 0.859375 -7.671875 C 0.859375 -9.179688 1.21875 -10.539062 1.9375 -11.75 C 2.664062 -12.957031 3.664062 -13.90625 4.9375 -14.59375 C 6.21875 -15.28125 7.65625 -15.625 9.25 -15.625 C 10.851562 -15.625 12.289062 -15.28125 13.5625 -14.59375 C 14.832031 -13.90625 15.832031 -12.957031 16.5625 -11.75 C 17.289062 -10.539062 17.65625 -9.179688 17.65625 -7.671875 C 17.65625 -6.171875 17.289062 -4.816406 16.5625 -3.609375 C 15.832031 -2.398438 14.832031 -1.453125 13.5625 -0.765625 C 12.289062 -0.078125 10.851562 0.265625 9.25 0.265625 Z M 9.25 -2.765625 C 10.164062 -2.765625 10.988281 -2.972656 11.71875 -3.390625 C 12.445312 -3.804688 13.019531 -4.382812 13.4375 -5.125 C 13.851562 -5.875 14.0625 -6.722656 14.0625 -7.671875 C 14.0625 -8.628906 13.851562 -9.476562 13.4375 -10.21875 C 13.019531 -10.96875 12.445312 -11.550781 11.71875 -11.96875 C 10.988281 -12.382812 10.164062 -12.59375 9.25 -12.59375 C 8.34375 -12.59375 7.523438 -12.382812 6.796875 -11.96875 C 6.066406 -11.550781 5.492188 -10.96875 5.078125 -10.21875 C 4.660156 -9.476562 4.453125 -8.628906 4.453125 -7.671875 C 4.453125 -6.722656 4.660156 -5.875 5.078125 -5.125 C 5.492188 -4.382812 6.066406 -3.804688 6.796875 -3.390625 C 7.523438 -2.972656 8.34375 -2.765625 9.25 -2.765625 Z M 9.25 -2.765625 "/></g></g></g><g fill="#a01a1a" fill-opacity="1"><g transform="translate(239.827195, 160.789948)"><g><path d="M 15.90625 -15.359375 L 15.90625 0 L 12.984375 0 L 5.328125 -9.328125 L 5.328125 0 L 1.828125 0 L 1.828125 -15.359375 L 4.765625 -15.359375 L 12.390625 -6.03125 L 12.390625 -15.359375 Z M 15.90625 -15.359375 "/></g></g></g><g fill="#a01a1a" fill-opacity="1"><g transform="translate(257.201699, 160.789948)"><g/></g></g><g fill="#a01a1a" fill-opacity="1"><g transform="translate(263.058958, 160.789948)"><g><path d="M 6.859375 0.265625 C 5.648438 0.265625 4.476562 0.101562 3.34375 -0.21875 C 2.207031 -0.550781 1.296875 -0.984375 0.609375 -1.515625 L 1.828125 -4.1875 C 2.484375 -3.707031 3.265625 -3.320312 4.171875 -3.03125 C 5.078125 -2.738281 5.984375 -2.59375 6.890625 -2.59375 C 7.898438 -2.59375 8.644531 -2.738281 9.125 -3.03125 C 9.601562 -3.332031 9.84375 -3.734375 9.84375 -4.234375 C 9.84375 -4.597656 9.703125 -4.898438 9.421875 -5.140625 C 9.140625 -5.378906 8.773438 -5.570312 8.328125 -5.71875 C 7.878906 -5.863281 7.273438 -6.023438 6.515625 -6.203125 C 5.347656 -6.484375 4.390625 -6.757812 3.640625 -7.03125 C 2.890625 -7.3125 2.25 -7.757812 1.71875 -8.375 C 1.1875 -8.988281 0.921875 -9.8125 0.921875 -10.84375 C 0.921875 -11.726562 1.160156 -12.53125 1.640625 -13.25 C 2.128906 -13.976562 2.859375 -14.554688 3.828125 -14.984375 C 4.796875 -15.410156 5.984375 -15.625 7.390625 -15.625 C 8.367188 -15.625 9.328125 -15.503906 10.265625 -15.265625 C 11.203125 -15.035156 12.019531 -14.703125 12.71875 -14.265625 L 11.625 -11.5625 C 10.207031 -12.363281 8.789062 -12.765625 7.375 -12.765625 C 6.375 -12.765625 5.632812 -12.601562 5.15625 -12.28125 C 4.6875 -11.957031 4.453125 -11.535156 4.453125 -11.015625 C 4.453125 -10.484375 4.722656 -10.085938 5.265625 -9.828125 C 5.816406 -9.578125 6.65625 -9.328125 7.78125 -9.078125 C 8.957031 -8.804688 9.914062 -8.53125 10.65625 -8.25 C 11.40625 -7.96875 12.046875 -7.523438 12.578125 -6.921875 C 13.109375 -6.328125 13.375 -5.519531 13.375 -4.5 C 13.375 -3.625 13.128906 -2.820312 12.640625 -2.09375 C 12.148438 -1.375 11.414062 -0.800781 10.4375 -0.375 C 9.457031 0.0507812 8.265625 0.265625 6.859375 0.265625 Z M 6.859375 0.265625 "/></g></g></g><g fill="#a01a1a" fill-opacity="1"><g transform="translate(276.374995, 160.789948)"><g><path d="M 9.1875 -5.4375 L 9.1875 0 L 5.640625 0 L 5.640625 -5.484375 L -0.3125 -15.359375 L 3.46875 -15.359375 L 7.5625 -8.53125 L 11.671875 -15.359375 L 15.15625 -15.359375 Z M 9.1875 -5.4375 "/></g></g></g><g fill="#a01a1a" fill-opacity="1"><g transform="translate(290.52464, 160.789948)"><g><path d="M 6.859375 0.265625 C 5.648438 0.265625 4.476562 0.101562 3.34375 -0.21875 C 2.207031 -0.550781 1.296875 -0.984375 0.609375 -1.515625 L 1.828125 -4.1875 C 2.484375 -3.707031 3.265625 -3.320312 4.171875 -3.03125 C 5.078125 -2.738281 5.984375 -2.59375 6.890625 -2.59375 C 7.898438 -2.59375 8.644531 -2.738281 9.125 -3.03125 C 9.601562 -3.332031 9.84375 -3.734375 9.84375 -4.234375 C 9.84375 -4.597656 9.703125 -4.898438 9.421875 -5.140625 C 9.140625 -5.378906 8.773438 -5.570312 8.328125 -5.71875 C 7.878906 -5.863281 7.273438 -6.023438 6.515625 -6.203125 C 5.347656 -6.484375 4.390625 -6.757812 3.640625 -7.03125 C 2.890625 -7.3125 2.25 -7.757812 1.71875 -8.375 C 1.1875 -8.988281 0.921875 -9.8125 0.921875 -10.84375 C 0.921875 -11.726562 1.160156 -12.53125 1.640625 -13.25 C 2.128906 -13.976562 2.859375 -14.554688 3.828125 -14.984375 C 4.796875 -15.410156 5.984375 -15.625 7.390625 -15.625 C 8.367188 -15.625 9.328125 -15.503906 10.265625 -15.265625 C 11.203125 -15.035156 12.019531 -14.703125 12.71875 -14.265625 L 11.625 -11.5625 C 10.207031 -12.363281 8.789062 -12.765625 7.375 -12.765625 C 6.375 -12.765625 5.632812 -12.601562 5.15625 -12.28125 C 4.6875 -11.957031 4.453125 -11.535156 4.453125 -11.015625 C 4.453125 -10.484375 4.722656 -10.085938 5.265625 -9.828125 C 5.816406 -9.578125 6.65625 -9.328125 7.78125 -9.078125 C 8.957031 -8.804688 9.914062 -8.53125 10.65625 -8.25 C 11.40625 -7.96875 12.046875 -7.523438 12.578125 -6.921875 C 13.109375 -6.328125 13.375 -5.519531 13.375 -4.5 C 13.375 -3.625 13.128906 -2.820312 12.640625 -2.09375 C 12.148438 -1.375 11.414062 -0.800781 10.4375 -0.375 C 9.457031 0.0507812 8.265625 0.265625 6.859375 0.265625 Z M 6.859375 0.265625 "/></g></g></g><g fill="#a01a1a" fill-opacity="1"><g transform="translate(303.950384, 160.789948)"><g><path d="M 5 -12.453125 L 0.09375 -12.453125 L 0.09375 -15.359375 L 13.46875 -15.359375 L 13.46875 -12.453125 L 8.5625 -12.453125 L 8.5625 0 L 5 0 Z M 5 -12.453125 "/></g></g></g><g fill="#a01a1a" fill-opacity="1"><g transform="translate(317.156736, 160.789948)"><g><path d="M 13.71875 -2.859375 L 13.71875 0 L 1.828125 0 L 1.828125 -15.359375 L 13.421875 -15.359375 L 13.421875 -12.5 L 5.359375 -12.5 L 5.359375 -9.171875 L 12.484375 -9.171875 L 12.484375 -6.40625 L 5.359375 -6.40625 L 5.359375 -2.859375 Z M 13.71875 -2.859375 "/></g></g></g><g fill="#a01a1a" fill-opacity="1"><g transform="translate(331.525773, 160.789948)"><g><path d="M 15.796875 0 L 15.765625 -9.21875 L 11.25 -1.625 L 9.65625 -1.625 L 5.15625 -9.015625 L 5.15625 0 L 1.828125 0 L 1.828125 -15.359375 L 4.765625 -15.359375 L 10.515625 -5.8125 L 16.171875 -15.359375 L 19.078125 -15.359375 L 19.125 0 Z M 15.796875 0 "/></g></g></g></svg>